<mxfile host="app.diagrams.net" agent="Mozilla/5.0 (Windows NT 10.0; Win64; x64) AppleWebKit/537.36 (KHTML, like Gecko) Chrome/136.0.0.0 Safari/537.36" version="27.1.4">
  <diagram name="Page-1" id="4xj54Xlleix2BYI23xbm">
    <mxGraphModel dx="1426" dy="743" grid="1" gridSize="10" guides="1" tooltips="1" connect="1" arrows="1" fold="1" page="1" pageScale="1" pageWidth="850" pageHeight="1100" math="0" shadow="0">
      <root>
        <mxCell id="0" />
        <mxCell id="1" parent="0" />
        <mxCell id="YcMbA9nCMgmcPC7BUh0c-1" value="" style="rounded=0;whiteSpace=wrap;html=1;fillColor=#b0e3e6;strokeColor=#0e8088;" vertex="1" parent="1">
          <mxGeometry x="190" width="640" height="530" as="geometry" />
        </mxCell>
        <mxCell id="YcMbA9nCMgmcPC7BUh0c-3" value="PostgreSQL&amp;nbsp;" style="shape=cylinder3;whiteSpace=wrap;html=1;boundedLbl=1;backgroundOutline=1;size=15;fillColor=#e1d5e7;strokeColor=#9673a6;" vertex="1" parent="1">
          <mxGeometry x="880" y="60" width="100" height="90" as="geometry" />
        </mxCell>
        <mxCell id="YcMbA9nCMgmcPC7BUh0c-4" value="&lt;br&gt;&lt;div&gt;&lt;/div&gt;" style="rounded=0;whiteSpace=wrap;html=1;" vertex="1" parent="1">
          <mxGeometry x="300" y="150" width="460" height="150" as="geometry" />
        </mxCell>
        <mxCell id="YcMbA9nCMgmcPC7BUh0c-5" value="&lt;span style=&quot;color: rgb(0, 0, 0); font-family: Helvetica; font-size: 12px; font-style: normal; font-variant-ligatures: normal; font-variant-caps: normal; font-weight: 400; letter-spacing: normal; orphans: 2; text-align: center; text-indent: 0px; text-transform: none; widows: 2; word-spacing: 0px; -webkit-text-stroke-width: 0px; white-space: normal; background-color: rgb(236, 236, 236); text-decoration-thickness: initial; text-decoration-style: initial; text-decoration-color: initial; display: inline !important; float: none;&quot;&gt;Batch Processing Container&lt;/span&gt;" style="text;whiteSpace=wrap;html=1;" vertex="1" parent="1">
          <mxGeometry x="440" y="160" width="180" height="40" as="geometry" />
        </mxCell>
        <mxCell id="YcMbA9nCMgmcPC7BUh0c-6" value="" style="whiteSpace=wrap;html=1;aspect=fixed;" vertex="1" parent="1">
          <mxGeometry x="340" y="190" width="90" height="90" as="geometry" />
        </mxCell>
        <mxCell id="YcMbA9nCMgmcPC7BUh0c-7" value="" style="whiteSpace=wrap;html=1;aspect=fixed;" vertex="1" parent="1">
          <mxGeometry x="620" y="190" width="90" height="90" as="geometry" />
        </mxCell>
        <mxCell id="YcMbA9nCMgmcPC7BUh0c-8" value="Preprocessing" style="text;whiteSpace=wrap;html=1;" vertex="1" parent="1">
          <mxGeometry x="340" y="215" width="110" height="40" as="geometry" />
        </mxCell>
        <mxCell id="YcMbA9nCMgmcPC7BUh0c-9" value="Prediction" style="text;whiteSpace=wrap;html=1;" vertex="1" parent="1">
          <mxGeometry x="635" y="215" width="60" height="40" as="geometry" />
        </mxCell>
        <mxCell id="YcMbA9nCMgmcPC7BUh0c-12" value="docker" style="whiteSpace=wrap;html=1;fillColor=#dae8fc;strokeColor=#6c8ebf;" vertex="1" parent="1">
          <mxGeometry x="300" y="150" width="70" height="30" as="geometry" />
        </mxCell>
        <mxCell id="YcMbA9nCMgmcPC7BUh0c-13" value="" style="rounded=0;whiteSpace=wrap;html=1;" vertex="1" parent="1">
          <mxGeometry x="290" y="370" width="470.5" height="140" as="geometry" />
        </mxCell>
        <mxCell id="YcMbA9nCMgmcPC7BUh0c-14" value="FastAPI" style="text;whiteSpace=wrap;html=1;fillColor=#fff2cc;strokeColor=#d6b656;align=center;" vertex="1" parent="1">
          <mxGeometry x="290" y="410" width="70" height="30" as="geometry" />
        </mxCell>
        <mxCell id="YcMbA9nCMgmcPC7BUh0c-15" value="docker" style="whiteSpace=wrap;html=1;fillColor=#dae8fc;strokeColor=#6c8ebf;" vertex="1" parent="1">
          <mxGeometry x="290" y="370" width="70" height="30" as="geometry" />
        </mxCell>
        <mxCell id="YcMbA9nCMgmcPC7BUh0c-16" value="FastAPI" style="text;whiteSpace=wrap;html=1;fillColor=#fff2cc;strokeColor=#d6b656;align=center;" vertex="1" parent="1">
          <mxGeometry x="680" y="400" width="80" height="30" as="geometry" />
        </mxCell>
        <mxCell id="YcMbA9nCMgmcPC7BUh0c-17" value="" style="whiteSpace=wrap;html=1;aspect=fixed;" vertex="1" parent="1">
          <mxGeometry x="570" y="375" width="90" height="90" as="geometry" />
        </mxCell>
        <mxCell id="YcMbA9nCMgmcPC7BUh0c-18" value="Prediction" style="text;whiteSpace=wrap;html=1;" vertex="1" parent="1">
          <mxGeometry x="585" y="400" width="60" height="40" as="geometry" />
        </mxCell>
        <mxCell id="YcMbA9nCMgmcPC7BUh0c-19" value="&#xa;GitHub Actions (Scheduler &amp;amp; CI/CD)&#xa;&#xa;" style="shape=parallelogram;perimeter=parallelogramPerimeter;whiteSpace=wrap;html=1;fixedSize=1;" vertex="1" parent="1">
          <mxGeometry x="10" y="305" width="280" height="70" as="geometry" />
        </mxCell>
        <mxCell id="YcMbA9nCMgmcPC7BUh0c-21" value="" style="endArrow=classic;html=1;rounded=0;exitX=1;exitY=0.5;exitDx=0;exitDy=0;" edge="1" parent="1" source="YcMbA9nCMgmcPC7BUh0c-19">
          <mxGeometry width="50" height="50" relative="1" as="geometry">
            <mxPoint x="400" y="350" as="sourcePoint" />
            <mxPoint x="520" y="290" as="targetPoint" />
            <Array as="points">
              <mxPoint x="520" y="330" />
            </Array>
          </mxGeometry>
        </mxCell>
        <mxCell id="YcMbA9nCMgmcPC7BUh0c-22" value="" style="endArrow=classic;html=1;rounded=0;entryX=0.484;entryY=0.019;entryDx=0;entryDy=0;entryPerimeter=0;" edge="1" parent="1" target="YcMbA9nCMgmcPC7BUh0c-13">
          <mxGeometry width="50" height="50" relative="1" as="geometry">
            <mxPoint x="516" y="330" as="sourcePoint" />
            <mxPoint x="450" y="300" as="targetPoint" />
          </mxGeometry>
        </mxCell>
        <mxCell id="YcMbA9nCMgmcPC7BUh0c-23" value="&lt;br&gt;Docker Registry &lt;br&gt;?" style="rounded=1;whiteSpace=wrap;html=1;" vertex="1" parent="1">
          <mxGeometry x="10" y="420" width="110" height="50" as="geometry" />
        </mxCell>
        <mxCell id="YcMbA9nCMgmcPC7BUh0c-24" value="" style="endArrow=classic;html=1;rounded=0;exitX=0.25;exitY=0;exitDx=0;exitDy=0;entryX=0.101;entryY=1.033;entryDx=0;entryDy=0;entryPerimeter=0;" edge="1" parent="1" source="YcMbA9nCMgmcPC7BUh0c-23" target="YcMbA9nCMgmcPC7BUh0c-19">
          <mxGeometry width="50" height="50" relative="1" as="geometry">
            <mxPoint x="400" y="350" as="sourcePoint" />
            <mxPoint x="450" y="300" as="targetPoint" />
          </mxGeometry>
        </mxCell>
        <mxCell id="YcMbA9nCMgmcPC7BUh0c-25" value="&#xa;Monitoring (Grafana &amp;amp; Prometheus)&#xa;&#xa;" style="rounded=1;whiteSpace=wrap;html=1;fillColor=#ffe6cc;strokeColor=#d79b00;" vertex="1" parent="1">
          <mxGeometry x="680" y="20" width="140" height="70" as="geometry" />
        </mxCell>
        <mxCell id="YcMbA9nCMgmcPC7BUh0c-26" value="&lt;span style=&quot;color: rgb(0, 0, 0); font-family: Helvetica; font-size: 12px; font-style: normal; font-variant-ligatures: normal; font-variant-caps: normal; font-weight: 400; letter-spacing: normal; orphans: 2; text-align: left; text-indent: 0px; text-transform: none; widows: 2; word-spacing: 0px; -webkit-text-stroke-width: 0px; white-space: normal; background-color: rgb(236, 236, 236); text-decoration-thickness: initial; text-decoration-style: initial; text-decoration-color: initial; display: inline !important; float: none;&quot;&gt;Real-time API&lt;/span&gt;" style="text;whiteSpace=wrap;html=1;" vertex="1" parent="1">
          <mxGeometry x="470.5" y="470" width="110" height="40" as="geometry" />
        </mxCell>
        <mxCell id="YcMbA9nCMgmcPC7BUh0c-27" value="" style="whiteSpace=wrap;html=1;aspect=fixed;" vertex="1" parent="1">
          <mxGeometry x="400" y="375" width="90" height="90" as="geometry" />
        </mxCell>
        <mxCell id="YcMbA9nCMgmcPC7BUh0c-28" value="Preprocessing" style="text;whiteSpace=wrap;html=1;" vertex="1" parent="1">
          <mxGeometry x="400" y="405" width="110" height="40" as="geometry" />
        </mxCell>
        <mxCell id="YcMbA9nCMgmcPC7BUh0c-30" value="" style="endArrow=classic;html=1;rounded=0;exitX=0.75;exitY=1;exitDx=0;exitDy=0;entryX=1;entryY=0.75;entryDx=0;entryDy=0;" edge="1" parent="1" source="YcMbA9nCMgmcPC7BUh0c-25" target="YcMbA9nCMgmcPC7BUh0c-13">
          <mxGeometry width="50" height="50" relative="1" as="geometry">
            <mxPoint x="400" y="350" as="sourcePoint" />
            <mxPoint x="790" y="440" as="targetPoint" />
            <Array as="points">
              <mxPoint x="790" y="468" />
            </Array>
          </mxGeometry>
        </mxCell>
        <mxCell id="YcMbA9nCMgmcPC7BUh0c-31" value="git" style="ellipse;whiteSpace=wrap;html=1;aspect=fixed;" vertex="1" parent="1">
          <mxGeometry x="20" y="520" width="80" height="80" as="geometry" />
        </mxCell>
        <mxCell id="YcMbA9nCMgmcPC7BUh0c-32" value="&#xa;Alerting System&#xa;&#xa;" style="rhombus;whiteSpace=wrap;html=1;fillColor=#f8cecc;strokeColor=#b85450;" vertex="1" parent="1">
          <mxGeometry x="700" y="67.5" width="80" height="75" as="geometry" />
        </mxCell>
        <mxCell id="YcMbA9nCMgmcPC7BUh0c-34" value="" style="rhombus;whiteSpace=wrap;html=1;fillColor=#f8cecc;strokeColor=#b85450;" vertex="1" parent="1">
          <mxGeometry x="390" y="150" width="40" height="40" as="geometry" />
        </mxCell>
        <mxCell id="YcMbA9nCMgmcPC7BUh0c-35" value="" style="rhombus;whiteSpace=wrap;html=1;fillColor=#f8cecc;strokeColor=#b85450;" vertex="1" parent="1">
          <mxGeometry x="830" y="185" width="40" height="40" as="geometry" />
        </mxCell>
        <mxCell id="YcMbA9nCMgmcPC7BUh0c-36" value="Marketing Server" style="ellipse;shape=cloud;whiteSpace=wrap;html=1;" vertex="1" parent="1">
          <mxGeometry x="390" y="530" width="160" height="100" as="geometry" />
        </mxCell>
        <mxCell id="YcMbA9nCMgmcPC7BUh0c-37" value="- PostgreSQL (RDS): Data Input/Output storage.&#xa;- GitHub Actions: CI/CD pipeline for automatic deployment &amp; scheduled jobs.&#xa;- Docker Registry (AWS ECR): Stores Docker images.&#xa;- Real-time API (FastAPI): Serves real-time prediction requests.&#xa;- Batch Job Container: Handles daily batch processing tasks.&#xa;- Elastic/Kibana: Centralized logging &amp; troubleshooting.&#xa;- Grafana/Prometheus: System and application monitoring.&#xa;- Alerting System: Sends notifications on operational issues." style="text;whiteSpace=wrap;fontSize=21;" vertex="1" parent="1">
          <mxGeometry x="40" y="640" width="740" height="310" as="geometry" />
        </mxCell>
        <mxCell id="YcMbA9nCMgmcPC7BUh0c-38" value="" style="rhombus;whiteSpace=wrap;html=1;fillColor=#f8cecc;strokeColor=#b85450;" vertex="1" parent="1">
          <mxGeometry x="420" y="465" width="40" height="35" as="geometry" />
        </mxCell>
        <mxCell id="YcMbA9nCMgmcPC7BUh0c-39" value="FastAPI" style="text;whiteSpace=wrap;html=1;fillColor=#fff2cc;strokeColor=#d6b656;align=center;" vertex="1" parent="1">
          <mxGeometry x="530" y="570" width="80" height="30" as="geometry" />
        </mxCell>
        <mxCell id="YcMbA9nCMgmcPC7BUh0c-40" value="ubuntu + docker compose&amp;nbsp;" style="text;html=1;align=center;verticalAlign=middle;whiteSpace=wrap;rounded=0;" vertex="1" parent="1">
          <mxGeometry x="200" y="110" width="60" height="55" as="geometry" />
        </mxCell>
        <mxCell id="YcMbA9nCMgmcPC7BUh0c-41" value="docker" style="whiteSpace=wrap;html=1;fillColor=#dae8fc;strokeColor=#6c8ebf;" vertex="1" parent="1">
          <mxGeometry x="715" width="70" height="30" as="geometry" />
        </mxCell>
        <mxCell id="YcMbA9nCMgmcPC7BUh0c-42" value="docker" style="whiteSpace=wrap;html=1;fillColor=#dae8fc;strokeColor=#6c8ebf;" vertex="1" parent="1">
          <mxGeometry x="895" y="20" width="70" height="30" as="geometry" />
        </mxCell>
        <mxCell id="YcMbA9nCMgmcPC7BUh0c-44" style="edgeStyle=orthogonalEdgeStyle;rounded=0;orthogonalLoop=1;jettySize=auto;html=1;exitX=0.5;exitY=0;exitDx=0;exitDy=0;entryX=0.889;entryY=0.056;entryDx=0;entryDy=0;entryPerimeter=0;" edge="1" parent="1" source="YcMbA9nCMgmcPC7BUh0c-6" target="YcMbA9nCMgmcPC7BUh0c-6">
          <mxGeometry relative="1" as="geometry" />
        </mxCell>
        <mxCell id="YcMbA9nCMgmcPC7BUh0c-46" value="&#xa;&lt;div style=&quot;color: #cccccc;background-color: #1f1f1f;font-family: Consolas, &#39;Courier New&#39;, monospace;font-weight: normal;font-size: 14px;line-height: 19px;white-space: pre;&quot;&gt;&lt;div&gt;&lt;span style=&quot;color: #569cd6;&quot;&gt;cadvisor&lt;/span&gt;&lt;/div&gt;&lt;/div&gt;&#xa;&#xa;" style="shape=card;whiteSpace=wrap;html=1;" vertex="1" parent="1">
          <mxGeometry x="300" width="140" height="70" as="geometry" />
        </mxCell>
        <mxCell id="YcMbA9nCMgmcPC7BUh0c-47" value="&#xa;&lt;div style=&quot;color: #cccccc;background-color: #1f1f1f;font-family: Consolas, &#39;Courier New&#39;, monospace;font-weight: normal;font-size: 14px;line-height: 19px;white-space: pre;&quot;&gt;&lt;div&gt;&lt;span style=&quot;color: #569cd6;&quot;&gt;node-exporter&lt;/span&gt;&lt;/div&gt;&lt;/div&gt;&#xa;&#xa;" style="shape=card;whiteSpace=wrap;html=1;" vertex="1" parent="1">
          <mxGeometry x="440" width="130" height="70" as="geometry" />
        </mxCell>
        <mxCell id="YcMbA9nCMgmcPC7BUh0c-49" value="" style="endArrow=classic;html=1;rounded=0;exitX=0.5;exitY=0;exitDx=0;exitDy=0;entryX=0.012;entryY=0.371;entryDx=0;entryDy=0;entryPerimeter=0;" edge="1" parent="1" source="YcMbA9nCMgmcPC7BUh0c-48" target="YcMbA9nCMgmcPC7BUh0c-25">
          <mxGeometry width="50" height="50" relative="1" as="geometry">
            <mxPoint x="680" y="55" as="sourcePoint" />
            <mxPoint x="627" y="149" as="targetPoint" />
            <Array as="points" />
          </mxGeometry>
        </mxCell>
        <mxCell id="YcMbA9nCMgmcPC7BUh0c-48" value="&lt;div style=&quot;color: rgb(204, 204, 204); font-family: Consolas, &amp;quot;Courier New&amp;quot;, monospace; font-size: 14px; line-height: 19px; white-space: pre;&quot;&gt;&lt;span style=&quot;color: rgb(86, 156, 214); background-color: light-dark(rgb(255, 255, 255), rgb(210, 210, 210));&quot;&gt;pushgateway&lt;/span&gt;&lt;/div&gt;" style="shape=trapezoid;perimeter=trapezoidPerimeter;whiteSpace=wrap;html=1;fixedSize=1;" vertex="1" parent="1">
          <mxGeometry x="550" y="70" width="117.5" height="50" as="geometry" />
        </mxCell>
        <mxCell id="YcMbA9nCMgmcPC7BUh0c-50" value="" style="endArrow=classic;html=1;rounded=0;entryX=0;entryY=0.25;entryDx=0;entryDy=0;exitX=1;exitY=0.5;exitDx=0;exitDy=0;exitPerimeter=0;" edge="1" parent="1" source="YcMbA9nCMgmcPC7BUh0c-47" target="YcMbA9nCMgmcPC7BUh0c-25">
          <mxGeometry width="50" height="50" relative="1" as="geometry">
            <mxPoint x="555" y="40" as="sourcePoint" />
            <mxPoint x="605" y="-10" as="targetPoint" />
          </mxGeometry>
        </mxCell>
        <mxCell id="YcMbA9nCMgmcPC7BUh0c-51" value="" style="endArrow=classic;html=1;rounded=0;entryX=1;entryY=0.5;entryDx=0;entryDy=0;" edge="1" parent="1" target="YcMbA9nCMgmcPC7BUh0c-25">
          <mxGeometry width="50" height="50" relative="1" as="geometry">
            <mxPoint x="880" y="80" as="sourcePoint" />
            <mxPoint x="930" y="30" as="targetPoint" />
          </mxGeometry>
        </mxCell>
        <mxCell id="YcMbA9nCMgmcPC7BUh0c-52" value="docker" style="whiteSpace=wrap;html=1;fillColor=#dae8fc;strokeColor=#6c8ebf;" vertex="1" parent="1">
          <mxGeometry x="350" y="50" width="70" height="30" as="geometry" />
        </mxCell>
        <mxCell id="YcMbA9nCMgmcPC7BUh0c-53" value="docker" style="whiteSpace=wrap;html=1;fillColor=#dae8fc;strokeColor=#6c8ebf;" vertex="1" parent="1">
          <mxGeometry x="465" y="50" width="70" height="30" as="geometry" />
        </mxCell>
        <mxCell id="YcMbA9nCMgmcPC7BUh0c-55" value="" style="endArrow=classic;html=1;rounded=0;exitX=0.675;exitY=0.027;exitDx=0;exitDy=0;exitPerimeter=0;" edge="1" parent="1" source="YcMbA9nCMgmcPC7BUh0c-4">
          <mxGeometry width="50" height="50" relative="1" as="geometry">
            <mxPoint x="560" y="170" as="sourcePoint" />
            <mxPoint x="610" y="120" as="targetPoint" />
          </mxGeometry>
        </mxCell>
        <mxCell id="YcMbA9nCMgmcPC7BUh0c-56" value="docker" style="whiteSpace=wrap;html=1;fillColor=#dae8fc;strokeColor=#6c8ebf;" vertex="1" parent="1">
          <mxGeometry x="490" y="90" width="70" height="30" as="geometry" />
        </mxCell>
        <mxCell id="YcMbA9nCMgmcPC7BUh0c-57" value="" style="rhombus;whiteSpace=wrap;html=1;fillColor=#f8cecc;strokeColor=#b85450;" vertex="1" parent="1">
          <mxGeometry x="425" y="45" width="40" height="40" as="geometry" />
        </mxCell>
        <mxCell id="YcMbA9nCMgmcPC7BUh0c-58" value="" style="endArrow=classic;startArrow=classic;html=1;rounded=0;exitX=1;exitY=0.5;exitDx=0;exitDy=0;" edge="1" parent="1" source="YcMbA9nCMgmcPC7BUh0c-4">
          <mxGeometry width="50" height="50" relative="1" as="geometry">
            <mxPoint x="880" y="200" as="sourcePoint" />
            <mxPoint x="930" y="150" as="targetPoint" />
            <Array as="points">
              <mxPoint x="930" y="230" />
            </Array>
          </mxGeometry>
        </mxCell>
      </root>
    </mxGraphModel>
  </diagram>
</mxfile>
